# xmcd CD database file
#
# Track frame offsets:
#	150
#	47707
#	91345
#	132102
#	183630
#	238027
#
# Disc length: 4087 seconds
#
# Revision: 0
# Processed by: cddbd v1.5.2PL0 Copyright (c) Steve Scherf et al.
# Submitted via: CDex 1.70beta2
#
DISCID=4b0ff506
DTITLE=Frank Foster Big Band - Manhattan Fever
DYEAR=1977
DGENRE=Jazz
TTITLE0=Thruway Traffic
TTITLE1=Four Five Six
TTITLE2=Manhattan Fever
TTITLE3=Marie Jean
TTITLE4=New Born
TTITLE5=Karmageddon
EXTD=YEAR: 1977
EXTT0=
EXTT1=
EXTT2=
EXTT3=
EXTT4=
EXTT5=
PLAYORDER=
